<svg id="svg" version="1.1" xmlns="http://www.w3.org/2000/svg" xmlns:xlink="http://www.w3.org/1999/xlink" width="400" height="481.10781404549954" viewBox="0, 0, 400,481.10781404549954"><g id="svgg"><path id="path0" d="M155.687 0.736 C 155.470 0.946,152.679 1.758,149.486 2.541 C 128.953 7.575,115.178 22.438,112.190 42.781 C 107.906 71.950,128.999 96.819,159.644 98.728 C 165.709 99.106,165.279 98.634,168.369 108.308 C 173.781 125.249,179.061 141.566,184.432 157.953 C 190.606 176.788,190.437 175.789,187.730 177.512 C 186.645 178.203,184.491 179.586,182.943 180.586 C 171.617 187.901,162.546 200.445,157.835 215.305 C 156.709 218.856,155.549 222.015,155.257 222.326 C 154.629 222.995,143.328 222.344,121.266 220.368 C 114.085 219.724,107.319 219.186,106.231 219.171 C 103.219 219.130,101.564 218.425,101.168 217.013 C 91.656 183.048,55.616 167.448,26.552 184.715 C 25.113 185.569,23.759 186.313,23.541 186.369 C 23.323 186.424,22.967 186.677,22.750 186.930 C 22.532 187.184,20.930 188.579,19.189 190.030 C -9.205 213.708,-2.074 260.173,32.204 274.844 C 49.365 282.190,70.820 278.750,85.423 266.313 C 90.529 261.964,94.251 256.375,98.757 246.291 L 101.585 239.960 104.700 240.017 C 113.895 240.182,153.940 243.675,154.750 244.381 C 155.106 244.691,155.879 246.938,156.468 249.376 C 160.025 264.077,167.583 275.667,179.911 285.327 C 186.638 290.598,186.845 290.803,186.612 291.961 C 186.446 292.789,165.221 348.564,159.395 363.482 C 157.572 368.149,157.541 368.170,153.297 367.580 C 127.575 364.002,100.565 382.799,93.967 408.868 C 82.285 455.030,129.864 494.019,172.199 472.974 C 209.669 454.349,214.267 403.104,180.712 378.105 C 176.875 375.247,176.815 376.267,181.555 363.796 C 198.161 320.101,206.285 299.195,206.894 298.586 C 207.116 298.364,208.308 298.457,209.948 298.825 C 213.634 299.652,225.798 299.494,231.256 298.548 C 241.707 296.736,251.362 292.300,260.911 284.924 C 262.642 283.587,264.273 282.493,264.535 282.493 C 264.798 282.493,272.996 288.684,282.753 296.252 C 327.108 330.652,322.541 326.604,321.506 330.600 C 314.070 359.313,343.354 384.120,370.098 371.763 C 397.080 359.297,397.437 320.703,370.687 308.029 C 365.294 305.474,355.594 303.860,351.137 304.776 C 345.860 305.862,342.807 306.831,339.565 308.451 C 337.343 309.562,335.555 310.213,335.015 310.109 C 333.914 309.897,278.473 266.873,277.989 265.855 C 277.733 265.316,278.176 263.877,279.650 260.453 C 285.657 246.503,286.880 229.897,282.850 217.013 C 281.696 213.325,281.810 212.657,283.778 211.553 C 290.295 207.897,318.720 192.547,319.837 192.080 L 321.222 191.501 324.508 194.293 C 354.633 219.884,399.209 200.035,399.209 161.029 C 399.209 118.672,344.241 100.664,318.826 134.695 C 311.258 144.828,309.968 150.542,310.696 170.711 C 310.799 173.570,312.591 172.313,294.931 181.773 C 287.519 185.743,279.658 190.000,277.463 191.232 C 271.909 194.349,271.700 194.329,268.045 190.320 C 254.675 175.659,234.404 167.529,215.430 169.220 C 213.037 169.433,210.791 169.465,210.441 169.290 C 209.752 168.947,207.582 162.468,194.024 120.277 C 184.041 89.208,184.593 92.599,188.986 89.337 C 218.993 67.060,214.916 21.945,181.430 5.727 C 178.176 4.151,176.292 3.532,168.150 1.365 C 165.234 0.588,156.307 0.138,155.687 0.736 M168.348 22.571 C 189.082 28.938,195.500 54.499,180.218 69.845 C 165.491 84.633,140.251 78.491,133.588 58.499 C 126.531 37.323,147.113 16.049,168.348 22.571 M361.293 138.329 C 376.296 142.737,383.148 159.991,375.275 173.539 C 366.056 189.404,341.829 188.918,333.450 172.700 C 323.654 153.738,340.973 132.358,361.293 138.329 M224.332 189.921 C 258.032 193.436,275.681 231.289,256.734 259.414 C 241.182 282.499,207.303 285.411,188.015 265.321 C 160.812 236.985,179.815 191.101,219.387 189.575 C 220.040 189.550,222.265 189.705,224.332 189.921 M59.444 199.381 C 82.048 205.162,89.433 234.632,72.219 250.364 C 52.900 268.020,22.341 254.490,22.358 228.289 C 22.372 208.500,40.339 194.495,59.444 199.381 M360.633 326.075 C 375.655 331.704,371.858 353.949,355.885 353.893 C 349.232 353.870,345.131 351.529,342.547 346.278 C 336.666 334.333,348.223 321.424,360.633 326.075 M155.639 388.798 C 177.514 393.667,189.139 418.421,179.028 438.603 C 163.993 468.615,119.646 462.330,113.380 429.297 C 108.719 404.723,131.046 383.325,155.639 388.798 " stroke="none" fill="#949cac" fill-rule="evenodd"></path><path id="path1" d="M0.592 240.752 C 0.592 373.056,0.637 427.240,0.692 361.160 C 0.747 295.080,0.747 186.831,0.692 120.606 C 0.637 54.382,0.592 108.447,0.592 240.752 M77.349 0.885 C 118.477 1.074,152.730 1.231,153.467 1.233 C 154.205 1.234,154.997 1.047,155.228 0.816 C 155.524 0.519,133.088 0.417,79.110 0.468 L 2.572 0.540 77.349 0.885 M166.911 1.041 C 167.644 1.361,168.534 1.545,168.889 1.451 C 169.323 1.335,169.211 1.232,168.546 1.135 C 168.002 1.056,206.726 0.902,254.599 0.791 L 341.642 0.591 253.610 0.526 C 175.878 0.468,165.735 0.528,166.911 1.041 M183.778 6.617 C 183.996 6.825,184.886 7.395,185.757 7.884 C 186.627 8.372,186.983 8.476,186.548 8.115 C 185.664 7.380,183.158 6.025,183.778 6.617 M132.832 8.916 C 132.020 9.468,131.355 10.005,131.355 10.109 C 131.355 10.213,132.067 9.827,132.938 9.251 C 134.320 8.336,134.787 7.913,134.414 7.913 C 134.356 7.913,133.644 8.364,132.832 8.916 M194.857 15.035 C 196.368 16.558,197.694 17.804,197.803 17.804 C 197.912 17.804,196.764 16.558,195.252 15.035 C 193.741 13.511,192.415 12.265,192.306 12.265 C 192.197 12.265,193.345 13.511,194.857 15.035 M157.864 21.788 C 156.286 21.961,157.039 22.045,160.600 22.092 C 163.302 22.127,165.439 22.091,165.348 22.011 C 165.005 21.708,159.951 21.558,157.864 21.788 M172.700 24.856 C 175.231 26.117,177.655 27.710,179.426 29.278 L 182.196 31.730 179.531 29.166 C 177.042 26.772,172.325 23.880,169.733 23.160 C 169.189 23.008,170.524 23.772,172.700 24.856 M147.102 24.984 C 144.220 26.547,140.183 29.877,138.742 31.878 C 137.745 33.261,137.800 33.231,139.238 31.600 C 141.292 29.271,144.468 26.818,147.654 25.101 C 149.026 24.362,149.970 23.758,149.753 23.758 C 149.535 23.759,148.342 24.311,147.102 24.984 M188.033 46.093 C 188.037 46.963,188.118 47.273,188.213 46.781 C 188.307 46.289,188.304 45.576,188.205 45.198 C 188.106 44.820,188.028 45.223,188.033 46.093 M188.447 49.852 C 188.447 51.048,188.521 51.538,188.612 50.940 C 188.702 50.341,188.702 49.362,188.612 48.764 C 188.521 48.165,188.447 48.655,188.447 49.852 M111.285 49.852 C 111.285 50.831,111.362 51.231,111.456 50.742 C 111.551 50.252,111.551 49.451,111.456 48.961 C 111.362 48.472,111.285 48.872,111.285 49.852 M132.254 49.852 C 132.254 50.831,132.331 51.231,132.426 50.742 C 132.520 50.252,132.520 49.451,132.426 48.961 C 132.331 48.472,132.254 48.872,132.254 49.852 M209.398 50.445 C 209.402 51.316,209.483 51.625,209.578 51.133 C 209.672 50.641,209.669 49.929,209.570 49.550 C 209.471 49.172,209.393 49.575,209.398 50.445 M188.025 53.808 C 188.025 54.570,188.106 54.881,188.205 54.500 C 188.305 54.120,188.305 53.497,188.205 53.116 C 188.106 52.735,188.025 53.046,188.025 53.808 M134.524 60.765 C 134.529 61.226,136.845 65.282,137.103 65.282 C 137.210 65.282,136.730 64.258,136.037 63.007 C 134.573 60.364,134.519 60.284,134.524 60.765 M182.377 66.963 C 181.642 67.888,181.353 68.394,181.736 68.087 C 182.456 67.508,184.151 65.282,183.872 65.282 C 183.784 65.282,183.112 66.039,182.377 66.963 M138.069 66.847 C 140.255 69.918,149.333 76.714,150.152 75.894 C 150.231 75.815,148.927 75.050,147.255 74.194 C 145.008 73.044,143.306 71.733,140.737 69.175 C 138.826 67.271,137.625 66.223,138.069 66.847 M178.034 71.328 C 177.487 71.811,176.507 72.616,175.858 73.118 C 175.209 73.619,175.035 73.858,175.470 73.647 C 176.294 73.248,179.575 70.461,179.228 70.454 C 179.120 70.452,178.582 70.845,178.034 71.328 M172.898 74.777 C 172.136 75.194,171.656 75.543,171.830 75.552 C 172.249 75.574,174.481 74.414,174.481 74.174 C 174.481 73.915,174.458 73.924,172.898 74.777 M158.754 77.838 C 159.787 77.919,161.479 77.919,162.512 77.838 C 163.546 77.756,162.700 77.690,160.633 77.690 C 158.566 77.690,157.720 77.756,158.754 77.838 M125.223 84.273 C 126.072 85.143,126.857 85.856,126.966 85.856 C 127.075 85.856,126.468 85.143,125.618 84.273 C 124.768 83.403,123.984 82.690,123.875 82.690 C 123.766 82.690,124.373 83.403,125.223 84.273 M195.227 84.372 L 194.065 85.658 195.351 84.496 C 196.058 83.857,196.637 83.278,196.637 83.210 C 196.637 82.904,196.311 83.173,195.227 84.372 M127.399 85.979 C 127.399 86.047,127.977 86.626,128.684 87.265 L 129.970 88.427 128.808 87.141 C 127.725 85.943,127.399 85.674,127.399 85.979 M192.062 87.141 L 190.900 88.427 192.186 87.265 C 192.893 86.626,193.472 86.047,193.472 85.979 C 193.472 85.674,193.145 85.943,192.062 87.141 M187.240 90.842 C 185.161 92.585,185.143 92.135,187.613 99.712 C 190.299 107.949,190.482 107.564,187.920 99.068 L 185.906 92.390 187.612 90.915 C 188.550 90.104,189.228 89.438,189.120 89.436 C 189.011 89.434,188.165 90.066,187.240 90.842 M155.193 98.789 C 155.574 98.889,156.197 98.889,156.578 98.789 C 156.958 98.690,156.647 98.608,155.885 98.608 C 155.124 98.608,154.812 98.690,155.193 98.789 M161.705 99.300 C 164.535 99.622,165.166 100.029,165.796 101.937 C 166.046 102.696,166.330 103.238,166.426 103.142 C 166.522 103.046,166.312 102.245,165.959 101.363 C 165.217 99.509,163.936 98.881,161.069 98.966 C 159.367 99.017,159.408 99.038,161.705 99.300 M190.368 108.012 C 190.368 108.338,190.696 109.496,191.098 110.584 C 191.499 111.672,191.828 112.295,191.828 111.968 C 191.828 111.642,191.499 110.485,191.098 109.397 C 190.696 108.309,190.368 107.685,190.368 108.012 M350.643 116.593 C 351.024 116.693,351.647 116.693,352.028 116.593 C 352.409 116.494,352.097 116.412,351.335 116.412 C 350.574 116.412,350.262 116.494,350.643 116.593 M357.571 116.600 C 358.064 116.695,358.776 116.691,359.154 116.592 C 359.532 116.493,359.130 116.416,358.259 116.420 C 357.389 116.425,357.079 116.506,357.571 116.600 M385.757 129.179 C 386.495 129.941,387.188 130.564,387.297 130.564 C 387.405 130.564,386.891 129.941,386.152 129.179 C 385.414 128.417,384.721 127.794,384.612 127.794 C 384.504 127.794,385.018 128.417,385.757 129.179 M320.648 131.850 L 319.486 133.136 320.772 131.973 C 321.479 131.334,322.057 130.756,322.057 130.688 C 322.057 130.382,321.731 130.651,320.648 131.850 M348.219 138.310 C 330.679 143.027,324.896 165.466,337.876 178.444 C 340.552 181.120,344.958 183.657,347.774 184.145 C 348.709 184.307,348.357 184.078,346.693 183.441 C 337.313 179.854,331.142 171.268,331.164 161.836 C 331.222 136.757,364.415 128.743,375.609 151.106 C 376.621 153.126,377.448 154.557,377.448 154.285 C 377.448 151.173,370.560 142.705,366.103 140.338 C 361.469 137.877,353.280 136.948,348.219 138.310 M393.867 140.059 C 394.205 140.712,394.570 141.246,394.679 141.246 C 394.788 141.246,394.601 140.712,394.263 140.059 C 393.926 139.407,393.560 138.872,393.451 138.872 C 393.343 138.872,393.530 139.407,393.867 140.059 M183.241 155.490 C 183.241 155.816,183.394 156.439,183.581 156.874 C 183.795 157.373,183.921 157.446,183.921 157.072 C 183.921 156.746,183.768 156.123,183.581 155.687 C 183.366 155.189,183.241 155.116,183.241 155.490 M377.758 159.446 C 378.336 174.919,367.356 185.707,352.127 184.630 C 349.866 184.470,349.536 184.503,350.742 184.769 C 366.347 188.209,382.393 171.283,377.936 156.083 C 377.707 155.303,377.646 156.455,377.758 159.446 M399.308 158.457 C 399.313 159.327,399.394 159.637,399.489 159.145 C 399.583 158.653,399.580 157.940,399.481 157.562 C 399.382 157.184,399.304 157.587,399.308 158.457 M399.316 163.798 C 399.316 164.777,399.394 165.178,399.488 164.688 C 399.582 164.199,399.582 163.398,399.488 162.908 C 399.394 162.418,399.316 162.819,399.316 163.798 M309.892 163.996 C 309.896 164.866,309.977 165.176,310.072 164.684 C 310.167 164.192,310.163 163.479,310.064 163.101 C 309.965 162.723,309.888 163.126,309.892 163.996 M208.933 165.670 C 208.916 165.937,209.188 166.872,209.539 167.747 L 210.175 169.337 212.407 169.306 C 214.880 169.271,214.773 169.128,211.995 168.755 C 210.249 168.520,210.107 168.409,209.553 166.844 C 209.229 165.931,208.950 165.402,208.933 165.670 M310.280 167.755 C 310.280 168.516,310.361 168.828,310.461 168.447 C 310.560 168.066,310.560 167.443,310.461 167.062 C 310.361 166.682,310.280 166.993,310.280 167.755 M187.567 168.687 C 187.509 169.339,189.637 175.861,189.776 175.461 C 189.854 175.238,189.395 173.547,188.757 171.702 C 188.119 169.857,187.583 168.500,187.567 168.687 M310.629 171.058 C 310.600 171.779,310.121 172.619,309.298 173.391 L 308.012 174.597 309.292 173.938 C 310.589 173.271,311.205 171.981,310.862 170.654 C 310.742 170.187,310.659 170.331,310.629 171.058 M247.709 175.026 C 248.113 175.392,251.236 176.850,251.236 176.673 C 251.236 176.448,248.251 174.876,247.823 174.876 C 247.669 174.876,247.618 174.943,247.709 175.026 M302.967 176.882 C 302.151 177.312,301.484 177.753,301.484 177.861 C 301.484 177.969,302.196 177.694,303.066 177.250 C 303.937 176.806,304.649 176.357,304.649 176.253 C 304.649 175.994,304.646 175.995,302.967 176.882 M297.033 180.047 C 296.217 180.478,295.549 180.918,295.549 181.026 C 295.549 181.134,296.261 180.859,297.132 180.415 C 298.002 179.971,298.714 179.523,298.714 179.418 C 298.714 179.159,298.711 179.160,297.033 180.047 M394.541 181.413 C 394.067 182.388,393.763 183.185,393.865 183.185 C 394.133 183.185,395.731 179.971,395.552 179.792 C 395.469 179.709,395.014 180.439,394.541 181.413 M292.285 182.617 C 291.251 183.156,290.406 183.684,290.406 183.793 C 290.406 183.901,291.296 183.538,292.384 182.987 C 293.472 182.436,294.362 181.899,294.362 181.794 C 294.362 181.532,294.398 181.518,292.285 182.617 M174.948 186.647 L 171.058 190.504 174.648 187.159 C 176.623 185.319,178.500 183.583,178.819 183.302 C 179.137 183.020,179.272 182.789,179.118 182.789 C 178.965 182.789,177.088 184.525,174.948 186.647 M287.537 185.190 C 286.721 185.621,286.053 186.062,286.053 186.170 C 286.053 186.278,286.766 186.003,287.636 185.559 C 288.506 185.115,289.219 184.666,289.219 184.562 C 289.219 184.303,289.216 184.304,287.537 185.190 M282.789 187.763 C 281.310 188.566,281.400 188.900,282.888 188.131 C 283.541 187.793,284.075 187.432,284.075 187.329 C 284.075 187.075,284.033 187.089,282.789 187.763 M84.273 189.243 C 84.273 189.312,84.852 189.890,85.559 190.529 L 86.845 191.691 85.683 190.406 C 84.599 189.207,84.273 188.938,84.273 189.243 M268.039 189.911 C 269.980 192.375,271.230 193.472,272.099 193.472 C 272.992 193.472,276.954 191.685,276.954 191.282 C 276.954 191.174,276.069 191.533,274.988 192.080 C 272.329 193.428,272.094 193.381,269.511 190.999 C 268.273 189.857,267.611 189.367,268.039 189.911 M279.228 189.742 C 277.749 190.544,277.839 190.878,279.327 190.109 C 279.980 189.771,280.514 189.411,280.514 189.307 C 280.514 189.053,280.472 189.067,279.228 189.742 M215.035 190.108 C 215.252 190.183,218.279 190.314,221.761 190.400 C 225.252 190.487,227.293 190.426,226.311 190.264 C 224.586 189.979,214.237 189.836,215.035 190.108 M15.812 192.582 L 13.650 194.857 15.925 192.694 C 18.038 190.685,18.381 190.307,18.087 190.307 C 18.026 190.307,17.002 191.330,15.812 192.582 M386.332 192.779 L 384.768 194.461 386.449 192.897 C 387.374 192.037,388.131 191.280,388.131 191.215 C 388.131 190.916,387.786 191.216,386.332 192.779 M235.015 192.800 C 252.484 199.452,262.893 213.951,263.899 233.037 L 264.223 239.169 264.101 233.037 C 263.777 216.765,255.271 202.831,240.950 195.110 C 237.953 193.495,233.032 191.482,232.137 191.507 C 231.870 191.514,233.165 192.096,235.015 192.800 M319.090 192.512 C 314.882 194.704,310.584 197.117,310.584 197.287 C 310.584 197.398,312.790 196.317,315.488 194.886 C 321.226 191.842,321.016 191.874,323.272 193.716 L 325.025 195.147 323.359 193.518 C 321.537 191.737,320.877 191.582,319.090 192.512 M200.367 194.418 C 192.236 198.419,185.505 204.793,180.927 212.827 C 179.993 214.466,179.233 215.989,179.237 216.212 C 179.242 216.435,179.825 215.549,180.533 214.243 C 185.278 205.488,192.241 198.737,200.791 194.604 C 202.967 193.553,204.557 192.689,204.323 192.686 C 204.090 192.683,202.310 193.463,200.367 194.418 M90.517 195.648 C 93.553 199.316,93.839 199.611,92.570 197.756 C 91.875 196.740,90.760 195.405,90.093 194.789 C 89.201 193.965,89.313 194.192,90.517 195.648 M307.319 198.839 C 306.286 199.377,305.440 199.906,305.440 200.014 C 305.440 200.123,306.330 199.760,307.418 199.209 C 308.506 198.657,309.397 198.120,309.397 198.015 C 309.397 197.753,309.432 197.739,307.319 198.839 M46.093 199.208 C 25.135 203.151,15.296 227.964,27.691 245.614 C 40.507 263.864,68.683 261.608,78.540 241.543 C 89.417 219.404,70.429 194.629,46.093 199.208 M57.682 199.637 C 80.326 204.283,88.989 232.655,72.729 248.916 C 58.222 263.423,33.776 259.065,25.344 240.470 C 15.518 218.799,34.466 194.873,57.682 199.637 M302.967 201.215 C 301.488 202.018,301.578 202.352,303.066 201.583 C 303.719 201.245,304.253 200.884,304.253 200.781 C 304.253 200.527,304.211 200.541,302.967 201.215 M298.615 203.589 C 297.136 204.392,297.226 204.726,298.714 203.956 C 299.367 203.619,299.901 203.258,299.901 203.155 C 299.901 202.900,299.859 202.915,298.615 203.589 M294.263 205.963 C 292.784 206.766,292.874 207.100,294.362 206.330 C 295.015 205.993,295.549 205.632,295.549 205.529 C 295.549 205.274,295.506 205.289,294.263 205.963 M289.911 208.337 C 288.432 209.140,288.522 209.474,290.010 208.704 C 290.663 208.367,291.197 208.006,291.197 207.903 C 291.197 207.648,291.154 207.663,289.911 208.337 M285.238 210.868 C 282.697 212.180,281.957 212.929,282.216 213.928 C 282.364 214.498,282.410 214.466,282.447 213.768 C 282.480 213.128,283.173 212.517,285.064 211.459 C 286.479 210.668,287.636 209.947,287.636 209.857 C 287.636 209.626,287.670 209.612,285.238 210.868 M99.558 211.276 C 99.692 211.820,100.044 212.799,100.342 213.452 C 100.776 214.405,100.834 214.444,100.639 213.650 C 100.506 213.106,100.154 212.127,99.856 211.474 C 99.422 210.521,99.364 210.482,99.558 211.276 M101.286 217.113 C 101.286 217.814,102.939 218.798,104.045 218.753 C 104.869 218.719,104.804 218.656,103.679 218.391 C 102.928 218.214,102.082 217.753,101.800 217.367 C 101.517 216.980,101.286 216.866,101.286 217.113 M178.080 218.979 C 177.624 220.199,177.260 221.413,177.271 221.677 C 177.282 221.940,177.719 221.005,178.241 219.599 C 178.763 218.192,179.127 216.978,179.050 216.901 C 178.973 216.823,178.537 217.759,178.080 218.979 M106.929 219.077 C 107.531 219.168,108.421 219.166,108.908 219.072 C 109.394 218.978,108.902 218.903,107.814 218.906 C 106.726 218.909,106.328 218.986,106.929 219.077 M112.270 219.469 C 112.762 219.563,113.474 219.560,113.852 219.461 C 114.231 219.362,113.828 219.284,112.957 219.289 C 112.087 219.293,111.778 219.374,112.270 219.469 M116.815 219.857 C 117.196 219.957,117.819 219.957,118.200 219.857 C 118.581 219.758,118.269 219.676,117.507 219.676 C 116.746 219.676,116.434 219.758,116.815 219.857 M155.460 220.874 C 154.976 221.975,154.645 222.190,153.116 222.394 L 151.335 222.631 152.918 222.684 C 154.836 222.749,155.311 222.479,155.872 221.005 C 156.474 219.420,156.147 219.316,155.460 220.874 M121.370 220.260 C 121.862 220.355,122.574 220.351,122.952 220.252 C 123.330 220.153,122.928 220.076,122.057 220.080 C 121.187 220.084,120.877 220.165,121.370 220.260 M125.717 220.655 C 126.207 220.749,127.008 220.749,127.498 220.655 C 127.987 220.561,127.587 220.484,126.607 220.484 C 125.628 220.484,125.227 220.561,125.717 220.655 M130.465 221.051 C 130.955 221.145,131.756 221.145,132.245 221.051 C 132.735 220.956,132.334 220.879,131.355 220.879 C 130.376 220.879,129.975 220.956,130.465 221.051 M135.015 221.451 C 135.613 221.541,136.592 221.541,137.191 221.451 C 137.789 221.360,137.300 221.286,136.103 221.286 C 134.906 221.286,134.416 221.360,135.015 221.451 M140.554 221.846 C 141.152 221.937,142.132 221.937,142.730 221.846 C 143.328 221.756,142.839 221.681,141.642 221.681 C 140.445 221.681,139.955 221.756,140.554 221.846 M146.494 222.242 C 147.095 222.333,147.986 222.331,148.472 222.237 C 148.959 222.143,148.467 222.069,147.379 222.072 C 146.291 222.075,145.893 222.151,146.494 222.242 M1.306 225.124 C 1.306 226.320,1.380 226.810,1.470 226.212 C 1.561 225.613,1.561 224.634,1.470 224.036 C 1.380 223.437,1.306 223.927,1.306 225.124 M175.548 231.454 C 175.302 234.532,175.742 242.738,176.176 243.172 C 176.294 243.290,176.081 230.199,175.940 228.684 C 175.889 228.140,175.713 229.387,175.548 231.454 M1.287 231.652 C 1.291 232.522,1.372 232.832,1.467 232.340 C 1.561 231.847,1.558 231.135,1.459 230.757 C 1.360 230.379,1.282 230.781,1.287 231.652 M263.593 240.554 C 263.593 241.316,263.675 241.627,263.774 241.246 C 263.874 240.865,263.874 240.242,263.774 239.862 C 263.675 239.481,263.593 239.792,263.593 240.554 M101.282 241.048 C 100.850 241.756,100.504 242.512,100.513 242.730 C 100.521 242.948,100.858 242.502,101.262 241.741 C 101.852 240.628,102.296 240.309,103.520 240.115 L 105.045 239.875 103.555 239.819 C 102.271 239.770,101.957 239.940,101.282 241.048 M106.924 240.431 C 107.305 240.531,107.928 240.531,108.309 240.431 C 108.689 240.331,108.378 240.250,107.616 240.250 C 106.855 240.250,106.543 240.331,106.924 240.431 M111.874 240.834 C 112.366 240.928,113.078 240.925,113.457 240.826 C 113.835 240.727,113.432 240.649,112.562 240.654 C 111.691 240.658,111.382 240.739,111.874 240.834 M117.013 241.229 C 117.502 241.323,118.304 241.323,118.793 241.229 C 119.283 241.134,118.882 241.057,117.903 241.057 C 116.924 241.057,116.523 241.134,117.013 241.229 M122.360 241.629 C 122.961 241.720,123.851 241.718,124.338 241.624 C 124.824 241.530,124.332 241.455,123.244 241.458 C 122.156 241.461,121.758 241.538,122.360 241.629 M127.498 242.024 C 128.096 242.115,129.075 242.115,129.674 242.024 C 130.272 241.934,129.782 241.859,128.586 241.859 C 127.389 241.859,126.899 241.934,127.498 242.024 M132.443 242.416 C 132.933 242.510,133.734 242.510,134.224 242.416 C 134.713 242.321,134.313 242.244,133.333 242.244 C 132.354 242.244,131.954 242.321,132.443 242.416 M137.191 242.811 C 137.681 242.906,138.482 242.906,138.971 242.811 C 139.461 242.717,139.060 242.640,138.081 242.640 C 137.102 242.640,136.701 242.717,137.191 242.811 M141.939 243.207 C 142.428 243.301,143.229 243.301,143.719 243.207 C 144.209 243.113,143.808 243.036,142.829 243.036 C 141.850 243.036,141.449 243.113,141.939 243.207 M146.291 243.603 C 146.780 243.697,147.582 243.697,148.071 243.603 C 148.561 243.508,148.160 243.431,147.181 243.431 C 146.202 243.431,145.801 243.508,146.291 243.603 M150.346 243.949 C 150.890 244.046,152.080 244.221,152.991 244.338 C 154.335 244.511,154.719 244.751,155.037 245.619 C 155.251 246.206,155.441 246.409,155.458 246.070 C 155.532 244.621,154.486 243.978,151.883 243.874 C 150.494 243.818,149.802 243.852,150.346 243.949 M262.562 245.351 C 262.423 246.046,262.382 246.688,262.472 246.778 C 262.562 246.868,262.758 246.381,262.908 245.697 C 263.058 245.013,263.099 244.371,262.998 244.271 C 262.897 244.170,262.701 244.656,262.562 245.351 M177.298 247.280 C 177.291 247.606,177.531 248.408,177.829 249.060 C 178.529 250.588,178.539 249.878,177.844 248.071 C 177.550 247.310,177.305 246.954,177.298 247.280 M261.741 248.350 C 260.486 253.442,255.346 261.345,249.888 266.575 C 247.692 268.679,246.607 269.845,247.478 269.166 C 249.980 267.214,254.905 261.944,256.653 259.347 C 259.224 255.528,262.755 247.984,262.221 247.450 C 262.107 247.336,261.891 247.741,261.741 248.350 M97.789 248.682 C 97.126 250.137,97.253 250.447,97.970 249.124 C 98.304 248.507,98.504 247.927,98.414 247.837 C 98.323 247.746,98.042 248.126,97.789 248.682 M178.465 250.643 C 178.465 250.861,178.720 251.484,179.031 252.028 C 179.342 252.572,179.596 252.839,179.596 252.621 C 179.596 252.404,179.342 251.780,179.031 251.236 C 178.720 250.692,178.465 250.425,178.465 250.643 M180.665 255.193 C 183.950 262.126,197.125 274.576,201.179 274.579 C 201.392 274.579,200.145 273.751,198.409 272.738 C 192.176 269.103,186.427 263.740,182.943 258.312 C 180.111 253.900,179.944 253.671,180.665 255.193 M278.725 262.894 C 277.681 265.351,277.659 265.521,278.304 266.233 C 279.099 267.111,286.845 273.122,286.845 272.860 C 286.845 272.762,284.879 271.135,282.477 269.244 C 277.679 265.466,277.857 265.861,279.375 262.352 C 279.789 261.394,280.060 260.541,279.977 260.458 C 279.893 260.375,279.330 261.471,278.725 262.894 M86.647 265.282 C 85.686 266.261,84.989 267.062,85.097 267.062 C 85.206 267.062,86.081 266.261,87.043 265.282 C 88.004 264.303,88.701 263.501,88.592 263.501 C 88.483 263.501,87.608 264.303,86.647 265.282 M28.091 273.191 C 28.091 273.462,30.514 274.663,30.695 274.482 C 30.780 274.396,30.230 274.030,29.471 273.668 C 28.712 273.306,28.091 273.091,28.091 273.191 M238.180 274.449 C 236.548 275.212,233.699 276.252,231.850 276.761 C 230.000 277.270,228.757 277.700,229.088 277.716 C 230.874 277.802,241.345 273.959,241.345 273.217 C 241.345 272.944,241.672 272.817,238.180 274.449 M287.240 273.128 C 287.240 273.237,287.953 273.890,288.823 274.580 C 289.693 275.269,290.406 275.744,290.406 275.635 C 290.406 275.526,289.693 274.873,288.823 274.184 C 287.953 273.495,287.240 273.020,287.240 273.128 M202.572 275.173 C 203.116 275.484,203.739 275.739,203.956 275.739 C 204.174 275.739,203.907 275.484,203.363 275.173 C 202.819 274.862,202.196 274.608,201.978 274.608 C 201.761 274.608,202.028 274.862,202.572 275.173 M290.801 275.898 C 290.801 276.007,291.513 276.660,292.384 277.349 C 293.254 278.039,293.966 278.514,293.966 278.405 C 293.966 278.296,293.254 277.643,292.384 276.954 C 291.513 276.264,290.801 275.789,290.801 275.898 M212.166 278.018 C 212.547 278.117,213.170 278.117,213.551 278.018 C 213.932 277.918,213.620 277.837,212.859 277.837 C 212.097 277.837,211.785 277.918,212.166 278.018 M217.328 278.435 C 219.024 278.509,221.695 278.509,223.262 278.434 C 224.830 278.359,223.442 278.298,220.178 278.299 C 216.914 278.299,215.631 278.361,217.328 278.435 M55.490 278.809 C 55.870 278.908,56.494 278.908,56.874 278.809 C 57.255 278.709,56.944 278.628,56.182 278.628 C 55.420 278.628,55.109 278.709,55.490 278.809 M297.923 281.437 C 297.923 281.546,298.635 282.199,299.505 282.888 C 300.376 283.578,301.088 284.053,301.088 283.944 C 301.088 283.835,300.376 283.182,299.505 282.493 C 298.635 281.803,297.923 281.328,297.923 281.437 M261.975 284.263 C 258.921 286.511,258.778 286.962,261.787 284.854 C 263.020 283.991,264.245 283.284,264.509 283.284 C 264.938 283.284,277.191 292.373,284.174 297.871 C 285.643 299.027,286.845 299.879,286.845 299.763 C 286.845 299.538,267.156 284.251,265.437 283.141 C 264.420 282.485,264.366 282.503,261.975 284.263 M301.484 284.207 C 301.484 284.315,302.196 284.968,303.066 285.658 C 303.937 286.347,304.649 286.822,304.649 286.713 C 304.649 286.605,303.937 285.952,303.066 285.262 C 302.196 284.573,301.484 284.098,301.484 284.207 M180.020 285.779 C 180.020 285.873,181.273 286.994,182.805 288.270 C 186.458 291.313,186.451 290.927,183.009 300.269 C 181.371 304.715,180.091 308.413,180.164 308.486 C 180.462 308.784,186.718 291.585,186.509 291.041 C 186.299 290.493,180.020 285.402,180.020 285.779 M257.765 287.473 L 256.578 288.493 257.864 287.642 C 258.571 287.174,259.149 286.714,259.149 286.620 C 259.149 286.324,258.982 286.427,257.765 287.473 M305.045 286.976 C 305.045 287.085,305.757 287.738,306.627 288.427 C 307.498 289.117,308.210 289.592,308.210 289.483 C 308.210 289.374,307.498 288.721,306.627 288.032 C 305.757 287.342,305.045 286.867,305.045 286.976 M308.605 289.746 C 308.605 289.854,309.318 290.507,310.188 291.197 C 311.058 291.886,311.771 292.361,311.771 292.252 C 311.771 292.144,311.058 291.491,310.188 290.801 C 309.318 290.112,308.605 289.637,308.605 289.746 M312.166 292.515 C 312.166 292.624,312.878 293.277,313.749 293.966 C 314.619 294.656,315.331 295.131,315.331 295.022 C 315.331 294.913,314.619 294.260,313.749 293.571 C 312.878 292.881,312.166 292.406,312.166 292.515 M246.093 294.164 C 245.549 294.475,245.282 294.730,245.500 294.730 C 245.717 294.730,246.340 294.475,246.884 294.164 C 247.428 293.853,247.695 293.599,247.478 293.599 C 247.260 293.599,246.637 293.853,246.093 294.164 M315.727 295.306 C 315.727 295.529,332.283 308.435,334.023 309.568 C 335.203 310.337,336.406 310.215,337.685 309.197 C 338.412 308.619,338.373 308.617,337.211 309.180 C 336.514 309.517,335.728 309.792,335.464 309.792 C 335.009 309.792,327.393 304.183,319.387 297.952 C 317.374 296.385,315.727 295.194,315.727 295.306 M239.169 296.770 C 238.081 297.190,237.705 297.433,238.334 297.311 C 239.578 297.069,242.185 296.010,241.543 296.008 C 241.325 296.007,240.257 296.350,239.169 296.770 M206.783 299.018 C 206.679 299.185,207.292 299.256,208.144 299.174 C 208.996 299.093,209.693 298.956,209.693 298.870 C 209.693 298.576,206.971 298.714,206.783 299.018 M287.332 300.126 C 287.465 300.340,289.041 301.653,290.833 303.043 C 292.626 304.432,293.982 305.389,293.846 305.169 C 293.710 304.949,292.134 303.636,290.345 302.252 C 288.555 300.868,287.200 299.911,287.332 300.126 M356.384 304.533 C 356.877 304.628,357.589 304.624,357.967 304.525 C 358.345 304.426,357.943 304.349,357.072 304.353 C 356.202 304.357,355.892 304.438,356.384 304.533 M294.362 305.571 C 294.362 305.680,295.074 306.333,295.945 307.023 C 296.815 307.712,297.527 308.187,297.527 308.078 C 297.527 307.970,296.815 307.316,295.945 306.627 C 295.074 305.938,294.362 305.463,294.362 305.571 M297.923 308.341 C 297.923 308.450,298.635 309.103,299.505 309.792 C 300.376 310.482,301.088 310.957,301.088 310.848 C 301.088 310.739,300.376 310.086,299.505 309.397 C 298.635 308.707,297.923 308.232,297.923 308.341 M179.272 310.232 C 179.029 310.931,178.899 311.572,178.983 311.657 C 179.068 311.742,179.336 311.239,179.580 310.540 C 179.824 309.840,179.954 309.199,179.869 309.114 C 179.785 309.030,179.516 309.533,179.272 310.232 M301.484 311.111 C 301.484 311.219,302.196 311.872,303.066 312.562 C 303.937 313.251,304.649 313.726,304.649 313.617 C 304.649 313.509,303.937 312.856,303.066 312.166 C 302.196 311.477,301.484 311.002,301.484 311.111 M377.052 311.484 C 377.052 311.544,378.432 312.923,380.119 314.550 L 383.185 317.507 380.228 314.441 C 377.481 311.593,377.052 311.194,377.052 311.484 M305.045 313.880 C 305.045 313.989,305.757 314.642,306.627 315.331 C 307.498 316.021,308.210 316.496,308.210 316.387 C 308.210 316.278,307.498 315.625,306.627 314.936 C 305.757 314.246,305.045 313.771,305.045 313.880 M199.846 316.167 C 199.602 316.866,199.472 317.507,199.557 317.592 C 199.641 317.676,199.910 317.174,200.154 316.474 C 200.398 315.775,200.528 315.134,200.443 315.049 C 200.359 314.965,200.090 315.467,199.846 316.167 M308.605 316.656 C 308.605 316.770,310.608 318.428,313.056 320.342 C 320.250 325.966,321.260 327.018,321.302 328.936 L 321.337 330.564 321.710 329.275 C 322.324 327.145,322.696 327.526,311.276 318.549 C 309.807 317.395,308.605 316.543,308.605 316.656 M353.997 325.508 C 354.699 325.596,355.946 325.597,356.767 325.511 C 357.588 325.426,357.013 325.354,355.490 325.352 C 353.966 325.351,353.295 325.421,353.997 325.508 M360.113 326.380 C 364.273 328.007,367.335 330.885,368.711 334.464 C 369.142 335.583,369.501 336.231,369.511 335.905 C 369.604 332.601,362.296 325.536,358.888 325.637 C 358.542 325.647,359.094 325.981,360.113 326.380 M347.972 327.264 C 345.145 328.816,341.406 334.242,341.471 336.696 C 341.489 337.359,341.659 337.088,341.985 335.877 C 342.894 332.507,344.950 329.732,348.179 327.518 C 349.288 326.758,349.166 326.608,347.972 327.264 M369.665 339.664 C 369.667 341.187,369.738 341.762,369.824 340.941 C 369.910 340.120,369.908 338.874,369.821 338.171 C 369.733 337.469,369.663 338.140,369.665 339.664 M341.162 339.664 C 341.165 340.752,341.241 341.150,341.332 340.548 C 341.423 339.947,341.421 339.057,341.327 338.570 C 341.233 338.084,341.159 338.576,341.162 339.664 M369.177 343.225 C 368.987 345.972,365.248 350.641,361.901 352.309 C 360.792 352.861,360.104 353.314,360.373 353.314 C 363.294 353.314,370.075 345.693,369.417 343.151 C 369.252 342.513,369.225 342.521,369.177 343.225 M341.844 344.128 C 341.818 347.470,347.677 352.808,352.151 353.520 C 353.019 353.658,352.700 353.465,351.271 352.985 C 347.046 351.568,344.535 349.391,342.781 345.624 C 342.267 344.522,341.846 343.849,341.844 344.128 M165.029 347.423 C 164.785 348.122,164.655 348.763,164.740 348.848 C 164.824 348.933,165.093 348.430,165.337 347.731 C 165.581 347.031,165.711 346.390,165.626 346.305 C 165.542 346.221,165.273 346.724,165.029 347.423 M162.438 354.197 C 158.416 364.611,157.070 367.499,156.155 367.677 C 155.299 367.843,155.299 367.845,156.134 367.899 C 156.597 367.928,157.214 367.665,157.505 367.314 C 158.096 366.602,164.681 349.712,164.456 349.487 C 164.377 349.408,163.469 351.528,162.438 354.197 M355.000 353.993 C 355.602 354.084,356.492 354.082,356.979 353.988 C 357.465 353.894,356.973 353.819,355.885 353.822 C 354.797 353.825,354.399 353.902,355.000 353.993 M323.244 354.652 C 323.244 355.077,324.422 357.270,324.649 357.270 C 324.758 357.270,324.553 356.691,324.193 355.984 C 323.459 354.540,323.244 354.239,323.244 354.652 M329.970 364.590 C 330.709 365.351,331.402 365.974,331.510 365.974 C 331.619 365.974,331.104 365.351,330.366 364.590 C 329.628 363.828,328.935 363.205,328.826 363.205 C 328.717 363.205,329.232 363.828,329.970 364.590 M380.196 365.084 L 378.833 366.568 380.317 365.204 C 381.697 363.935,381.982 363.600,381.680 363.600 C 381.614 363.600,380.946 364.268,380.196 365.084 M178.470 372.303 C 177.364 375.336,177.487 375.628,180.930 378.148 C 182.652 379.408,183.089 379.643,182.036 378.742 C 181.077 377.921,179.760 376.791,179.108 376.230 L 177.923 375.210 178.771 372.700 C 179.860 369.475,179.617 369.156,178.470 372.303 M108.003 383.680 L 104.649 387.141 108.111 383.787 C 111.326 380.672,111.753 380.218,111.465 380.218 C 111.406 380.218,109.848 381.775,108.003 383.680 M183.976 380.326 C 183.976 380.386,185.356 381.766,187.043 383.393 L 190.109 386.350 187.151 383.284 C 184.405 380.436,183.976 380.037,183.976 380.326 M148.764 388.551 C 171.640 389.737,186.814 410.456,180.817 432.317 C 174.705 454.593,147.922 464.641,128.911 451.790 C 104.926 435.577,109.659 399.872,137.092 390.081 C 138.180 389.693,138.852 389.362,138.585 389.346 C 132.852 389.005,120.833 398.872,116.692 407.319 C 101.965 437.357,132.691 468.597,162.972 454.373 C 196.243 438.744,184.302 387.684,147.494 388.192 L 143.027 388.254 148.764 388.551 M140.059 388.922 C 138.730 389.348,140.166 389.348,141.840 388.922 C 142.906 388.651,142.926 388.619,142.038 388.612 C 141.494 388.608,140.603 388.748,140.059 388.922 M97.705 397.666 C 97.035 398.994,96.552 400.145,96.631 400.225 C 96.711 400.305,97.344 399.219,98.038 397.811 C 98.732 396.404,99.215 395.252,99.112 395.252 C 99.008 395.252,98.375 396.338,97.705 397.666 M196.835 396.439 C 197.172 397.092,197.538 397.626,197.646 397.626 C 197.755 397.626,197.568 397.092,197.230 396.439 C 196.893 395.786,196.528 395.252,196.419 395.252 C 196.310 395.252,196.497 395.786,196.835 396.439 M91.944 423.145 C 91.945 425.974,92.008 427.080,92.084 425.602 C 92.160 424.124,92.160 421.809,92.083 420.458 C 92.006 419.107,91.943 420.317,91.944 423.145 M203.463 427.102 C 203.467 427.972,203.548 428.282,203.643 427.790 C 203.737 427.297,203.734 426.585,203.635 426.207 C 203.536 425.829,203.458 426.231,203.463 427.102 M96.538 445.643 C 96.538 446.072,98.899 450.643,99.121 450.643 C 99.230 450.643,98.761 449.530,98.079 448.170 C 96.787 445.592,96.538 445.184,96.538 445.643 M192.062 456.874 C 191.453 457.690,189.339 460.060,187.366 462.140 L 183.778 465.923 187.750 461.943 C 191.274 458.411,193.854 455.391,193.348 455.391 C 193.250 455.391,192.671 456.058,192.062 456.874 M108.012 462.315 C 109.852 464.164,111.446 465.678,111.555 465.678 C 111.664 465.678,110.248 464.164,108.408 462.315 C 106.567 460.465,104.973 458.952,104.864 458.952 C 104.755 458.952,106.172 460.465,108.012 462.315 M112.506 466.379 C 112.819 466.885,115.134 468.598,115.134 468.323 C 115.134 468.225,114.480 467.647,113.681 467.037 C 112.882 466.428,112.353 466.132,112.506 466.379 M117.705 470.235 C 118.140 470.589,118.853 471.054,119.288 471.267 L 120.079 471.656 119.288 471.012 C 118.853 470.657,118.140 470.193,117.705 469.979 L 116.914 469.590 117.705 470.235 M143.329 479.018 C 143.930 479.109,144.820 479.106,145.307 479.012 C 145.794 478.919,145.302 478.844,144.214 478.847 C 143.126 478.850,142.727 478.927,143.329 479.018 M150.643 479.013 C 151.133 479.107,151.934 479.107,152.423 479.013 C 152.913 478.919,152.512 478.842,151.533 478.842 C 150.554 478.842,150.153 478.919,150.643 479.013 " stroke="none" fill="#f3f4f5" fill-rule="evenodd"></path><path id="path2" d="M195.429 83.778 L 194.065 85.262 195.549 83.899 C 196.365 83.149,197.033 82.481,197.033 82.415 C 197.033 82.113,196.698 82.397,195.429 83.778 M124.629 83.210 C 124.629 83.278,125.208 83.857,125.915 84.496 L 127.201 85.658 126.039 84.372 C 124.956 83.173,124.629 82.904,124.629 83.210 M309.911 159.446 C 309.911 160.643,309.985 161.133,310.076 160.534 C 310.166 159.936,310.166 158.956,310.076 158.358 C 309.985 157.760,309.911 158.249,309.911 159.446 M218.892 189.799 C 219.491 189.889,220.470 189.889,221.068 189.799 C 221.667 189.708,221.177 189.634,219.980 189.634 C 218.783 189.634,218.294 189.708,218.892 189.799 M264.401 234.224 C 264.401 235.203,264.478 235.603,264.572 235.114 C 264.666 234.624,264.666 233.823,264.572 233.333 C 264.478 232.844,264.401 233.244,264.401 234.224 M172.700 279.327 C 173.550 280.198,174.335 280.910,174.443 280.910 C 174.552 280.910,173.946 280.198,173.096 279.327 C 172.246 278.457,171.462 277.745,171.353 277.745 C 171.244 277.745,171.850 278.457,172.700 279.327 M221.266 278.809 C 221.647 278.908,222.270 278.908,222.651 278.809 C 223.032 278.709,222.720 278.628,221.958 278.628 C 221.197 278.628,220.885 278.709,221.266 278.809 M329.179 363.329 C 329.179 363.397,329.758 363.975,330.465 364.614 L 331.751 365.776 330.589 364.491 C 329.505 363.292,329.179 363.023,329.179 363.329 M379.801 365.084 L 378.437 366.568 379.921 365.204 C 380.737 364.454,381.405 363.787,381.405 363.721 C 381.405 363.418,381.070 363.703,379.801 365.084 M146.890 388.019 C 147.491 388.110,148.381 388.107,148.868 388.013 C 149.355 387.920,148.863 387.845,147.774 387.848 C 146.686 387.851,146.288 387.928,146.890 388.019 M171.884 448.368 L 170.722 449.654 172.008 448.492 C 173.207 447.409,173.476 447.082,173.170 447.082 C 173.102 447.082,172.523 447.661,171.884 448.368 " stroke="none" fill="#bec3cc" fill-rule="evenodd"></path><path id="path3" d="M354.995 116.593 C 355.376 116.693,355.999 116.693,356.380 116.593 C 356.761 116.494,356.449 116.412,355.687 116.412 C 354.926 116.412,354.614 116.494,354.995 116.593 M399.300 161.029 C 399.300 161.790,399.382 162.102,399.481 161.721 C 399.581 161.340,399.581 160.717,399.481 160.336 C 399.382 159.955,399.300 160.267,399.300 161.029 M86.647 191.617 C 86.647 191.685,87.226 192.264,87.933 192.903 L 89.219 194.065 88.057 192.779 C 86.973 191.581,86.647 191.312,86.647 191.617 M1.295 228.684 C 1.295 229.664,1.372 230.064,1.466 229.575 C 1.560 229.085,1.560 228.284,1.466 227.794 C 1.372 227.305,1.295 227.705,1.295 228.684 M146.295 458.044 C 146.788 458.139,147.500 458.135,147.878 458.036 C 148.256 457.937,147.854 457.860,146.983 457.864 C 146.113 457.869,145.803 457.950,146.295 458.044 M147.478 479.013 C 147.967 479.107,148.769 479.107,149.258 479.013 C 149.748 478.919,149.347 478.842,148.368 478.842 C 147.389 478.842,146.988 478.919,147.478 479.013 " stroke="none" fill="#ccccd4" fill-rule="evenodd"></path><path id="path4" d="" stroke="none" fill="#c4ccd1" fill-rule="evenodd"></path></g></svg>