<svg version="1.1" id="Layer_1" xmlns="http://www.w3.org/2000/svg" xmlns:xlink="http://www.w3.org/1999/xlink" x="0px" y="0px"
	 width="100%" viewBox="0 0 1011 1216" enable-background="new 0 0 1011 1216" xml:space="preserve">
<path fill="#FFFFFF" opacity="1.000000" stroke="none" 
	d="
M417.000000,1.000003 
	C615.314880,1.000000 813.629761,1.000000 1011.972290,1.000000 
	C1011.972290,406.277191 1011.972290,811.554382 1011.972290,1216.915771 
	C675.087524,1216.915771 338.175049,1216.915771 1.131284,1216.915771 
	C1.131284,811.666687 1.131284,406.333344 1.127765,1.000007 
	C131.778870,1.000000 262.433472,1.000000 393.570251,1.403888 
	C393.051270,2.231939 392.084839,2.790368 391.043640,3.059493 
	C380.646393,5.746924 369.930847,7.548481 359.893768,11.212558 
	C338.311340,19.091324 320.870667,32.996544 307.050385,51.259720 
	C293.343658,69.372833 285.320740,89.671188 282.720306,112.459892 
	C280.933960,128.113892 282.109375,143.334137 286.151978,158.219391 
	C292.658142,182.175797 305.398682,202.366898 324.291046,218.901917 
	C347.497253,239.212463 374.555634,248.733719 404.900909,249.774323 
	C418.441315,250.238647 418.172150,249.956573 422.138428,263.070282 
	C427.607513,281.152588 433.530548,299.098022 439.301727,317.088440 
	C445.531708,336.509033 451.745605,355.935181 458.086334,375.319763 
	C464.836578,395.956207 471.842896,416.509918 478.433228,437.196625 
	C479.436981,440.347290 482.177032,444.365479 477.037811,447.196014 
	C458.199097,457.571655 441.306213,470.537598 428.336670,487.756775 
	C420.389374,498.308167 412.933594,509.523071 407.230560,521.388550 
	C401.605988,533.090759 398.229370,545.914490 394.378479,558.404114 
	C393.155884,562.369446 391.189636,563.423462 387.574188,563.099731 
	C383.774750,562.759583 379.967834,562.497620 376.161438,562.242249 
	C364.563416,561.464172 352.950806,560.865967 341.368103,559.905396 
	C319.392395,558.082886 297.434906,556.041138 275.466644,554.127441 
	C270.341614,553.681030 265.078705,553.957703 260.102203,552.875854 
	C253.374969,551.413269 256.274597,544.118896 253.469574,540.126831 
	C253.108414,539.612854 253.090515,538.864380 252.883820,538.234253 
	C245.415009,515.467041 232.944412,496.042206 214.674713,480.364868 
	C199.677536,467.495697 182.654144,458.365051 163.649368,453.377411 
	C143.294281,448.035400 122.775551,447.764282 102.100456,452.769531 
	C79.397507,458.265778 59.567593,468.829376 42.846157,484.922211 
	C23.303509,503.730164 10.526629,526.440735 5.870057,553.376831 
	C2.579175,572.413086 2.782928,591.319824 7.913539,610.113770 
	C15.193069,636.779358 29.506132,658.747803 50.862751,676.256104 
	C72.828194,694.263489 98.110825,703.732056 126.313126,704.674988 
	C136.470398,705.014587 146.868729,703.762695 156.862564,701.764343 
	C166.521973,699.832825 176.233490,696.941345 185.164047,692.826294 
	C207.356079,682.600708 225.873474,667.544922 238.198654,646.147400 
	C244.534668,635.147461 249.586197,623.355774 254.542267,611.636108 
	C256.808472,606.277161 257.087067,605.400269 262.841309,606.053955 
	C269.759613,606.839966 276.704102,607.425781 283.648834,607.942627 
	C298.219574,609.026917 312.807709,609.888062 327.370636,611.064270 
	C345.895172,612.560425 364.390625,614.425903 382.921082,615.836426 
	C391.986237,616.526489 392.195984,616.184082 394.099487,625.122559 
	C400.843567,656.791016 414.978149,684.603210 438.170532,707.272339 
	C447.381805,716.275818 458.007721,723.848083 468.140228,731.882019 
	C470.829376,734.014160 472.875488,735.637390 471.337158,739.622864 
	C459.924438,769.190796 448.696075,798.829773 437.367737,828.430359 
	C424.972290,860.819275 412.491272,893.175476 400.167664,925.591553 
	C398.806885,929.170959 397.084930,930.516479 393.103058,929.752625 
	C376.014160,926.474548 358.997223,927.829102 342.190674,931.676208 
	C327.064423,935.138550 312.869385,940.937561 299.610626,949.206665 
	C275.046143,964.526855 256.858459,985.303345 244.847122,1011.556396 
	C236.051117,1030.781860 232.606003,1050.930298 232.818741,1072.113403 
	C233.076843,1097.813110 240.287628,1121.188110 253.519592,1142.838989 
	C264.399384,1160.641235 278.832794,1175.039673 296.181793,1186.801636 
	C314.928253,1199.510864 335.669159,1206.852661 357.758118,1209.439331 
	C379.048889,1211.932617 400.258301,1209.481812 420.615692,1202.000610 
	C445.700439,1192.782227 466.688690,1177.866455 483.437744,1156.979736 
	C503.605164,1131.829956 513.866150,1102.916626 514.493958,1070.957275 
	C514.724915,1059.198975 512.129517,1047.284790 509.955566,1035.603271 
	C506.787933,1018.582336 499.175995,1003.343323 489.394348,989.144653 
	C479.079193,974.171509 466.256073,961.791138 451.251923,951.554382 
	C449.878265,950.617188 448.423462,947.764099 448.886932,946.478943 
	C454.456726,931.035095 460.362488,915.711975 466.220215,900.372559 
	C470.419525,889.376160 474.698822,878.410400 478.905518,867.416870 
	C483.469666,855.489075 487.984070,843.542236 492.532776,831.608521 
	C497.659943,818.157166 502.728607,804.682800 507.958527,791.271423 
	C512.416748,779.838806 517.189331,768.527588 521.550781,757.059204 
	C522.692627,754.056824 524.115417,753.949463 526.839233,754.542053 
	C531.531006,755.562927 536.319946,756.501587 541.099304,756.692261 
	C560.910583,757.482605 580.550720,756.958557 599.880127,751.281372 
	C614.175537,747.082764 627.819153,741.572754 640.409058,733.797668 
	C649.134888,728.408813 657.203796,721.928894 665.372864,715.683533 
	C667.627563,713.959900 669.150452,713.550598 671.401611,715.439209 
	C674.574280,718.100952 677.992065,720.468628 681.270935,723.005981 
	C698.077637,736.012451 714.895630,749.004395 731.667847,762.055176 
	C758.004822,782.548340 784.273621,803.129272 810.674561,823.539429 
	C813.595703,825.797729 814.575134,827.776245 813.539978,831.514160 
	C810.160034,843.719177 808.185059,855.993103 809.965881,868.876648 
	C813.338745,893.277893 824.044495,913.395752 843.401367,928.562134 
	C866.141602,946.379333 891.956177,951.866760 919.959839,945.202576 
	C939.061646,940.656799 954.862915,930.414124 967.390320,915.036804 
	C979.879761,899.705872 986.995239,882.247314 987.677490,862.662659 
	C988.650208,834.739990 978.403931,811.358887 957.753235,792.198425 
	C929.500977,765.984924 883.817200,762.506470 852.199524,782.712952 
	C848.742188,784.922546 846.495544,784.848572 843.406799,782.411377 
	C830.771851,772.441833 817.959473,762.697571 805.257629,752.812378 
	C783.778137,736.095886 762.349976,719.313477 740.866150,702.602600 
	C729.599670,693.839294 718.253540,685.178467 706.957703,676.452942 
	C701.170105,671.982239 700.939453,671.212646 703.999268,665.002319 
	C713.721191,645.270264 719.584534,624.476624 720.705566,602.491760 
	C721.711121,582.771729 720.083191,563.297302 713.842957,544.392334 
	C711.767273,538.103882 712.206665,537.209045 718.087585,534.274658 
	C720.025208,533.307800 721.987000,532.384094 723.886169,531.346313 
	C750.831970,516.622253 777.737793,501.824768 804.728577,487.183655 
	C811.978760,483.250793 812.054993,483.504852 818.101685,489.314636 
	C820.616089,491.730530 823.250061,494.041290 825.980652,496.209778 
	C845.752319,511.911652 868.377136,520.118713 893.523804,520.666931 
	C921.484192,521.276550 946.316101,512.529541 967.999939,494.596497 
	C991.752258,474.952698 1005.200439,449.635437 1008.615479,419.411896 
	C1011.309509,395.569977 1006.312256,372.768219 994.208557,351.805695 
	C979.741516,326.750244 958.676025,309.358063 931.337341,300.351257 
	C908.727173,292.902344 885.703430,292.598236 862.696289,299.922760 
	C833.006409,309.374786 811.087524,328.023224 796.180237,355.102264 
	C788.633545,368.810822 784.193420,383.708923 783.469543,399.238068 
	C782.988708,409.553528 784.672058,420.002411 785.808838,430.345184 
	C786.280518,434.636993 786.424744,437.609039 781.665100,440.000031 
	C766.852417,447.441010 752.321594,455.446991 737.732239,463.327820 
	C722.832764,471.376221 707.898621,479.369232 693.181580,487.741425 
	C688.354370,490.487457 685.283569,489.858032 681.820068,485.645874 
	C669.554810,470.729492 654.835754,458.505981 638.118896,448.993195 
	C606.235901,430.850006 571.896179,423.915070 535.411987,428.377014 
	C532.322571,428.754883 530.760193,428.186981 529.803345,425.240906 
	C523.300476,405.218109 516.638550,385.246704 510.189606,365.206726 
	C500.950409,336.495972 491.866943,307.735107 482.680847,279.007233 
	C478.391693,265.593719 474.093506,252.182007 469.635712,238.824142 
	C468.298920,234.818481 468.666595,232.046127 472.599518,229.562668 
	C477.349670,226.563202 481.750610,222.962097 486.081360,219.355652 
	C502.814148,205.421295 514.510803,187.894867 521.884766,167.542892 
	C529.333923,146.983536 530.973999,125.946129 527.121826,104.269745 
	C524.101379,87.274185 518.038757,71.656502 508.524292,57.452881 
	C498.240845,42.101341 485.230408,29.417196 469.214203,19.933632 
	C455.485443,11.804510 440.975830,6.022893 425.048187,3.939244 
	C422.284607,3.577710 419.678711,2.010387 417.000000,1.000003 
z"/>
<path fill="#979FAC" opacity="1.000000" stroke="none" 
	d="
M416.531372,1.000003 
	C419.678711,2.010387 422.284607,3.577710 425.048187,3.939244 
	C440.975830,6.022893 455.485443,11.804510 469.214203,19.933632 
	C485.230408,29.417196 498.240845,42.101341 508.524292,57.452881 
	C518.038757,71.656502 524.101379,87.274185 527.121826,104.269745 
	C530.973999,125.946129 529.333923,146.983536 521.884766,167.542892 
	C514.510803,187.894867 502.814148,205.421295 486.081360,219.355652 
	C481.750610,222.962097 477.349670,226.563202 472.599518,229.562668 
	C468.666595,232.046127 468.298920,234.818481 469.635712,238.824142 
	C474.093506,252.182007 478.391693,265.593719 482.680847,279.007233 
	C491.866943,307.735107 500.950409,336.495972 510.189606,365.206726 
	C516.638550,385.246704 523.300476,405.218109 529.803345,425.240906 
	C530.760193,428.186981 532.322571,428.754883 535.411987,428.377014 
	C571.896179,423.915070 606.235901,430.850006 638.118896,448.993195 
	C654.835754,458.505981 669.554810,470.729492 681.820068,485.645874 
	C685.283569,489.858032 688.354370,490.487457 693.181580,487.741425 
	C707.898621,479.369232 722.832764,471.376221 737.732239,463.327820 
	C752.321594,455.446991 766.852417,447.441010 781.665100,440.000031 
	C786.424744,437.609039 786.280518,434.636993 785.808838,430.345184 
	C784.672058,420.002411 782.988708,409.553528 783.469543,399.238068 
	C784.193420,383.708923 788.633545,368.810822 796.180237,355.102264 
	C811.087524,328.023224 833.006409,309.374786 862.696289,299.922760 
	C885.703430,292.598236 908.727173,292.902344 931.337341,300.351257 
	C958.676025,309.358063 979.741516,326.750244 994.208557,351.805695 
	C1006.312256,372.768219 1011.309509,395.569977 1008.615479,419.411896 
	C1005.200439,449.635437 991.752258,474.952698 967.999939,494.596497 
	C946.316101,512.529541 921.484192,521.276550 893.523804,520.666931 
	C868.377136,520.118713 845.752319,511.911652 825.980652,496.209778 
	C823.250061,494.041290 820.616089,491.730530 818.101685,489.314636 
	C812.054993,483.504852 811.978760,483.250793 804.728577,487.183655 
	C777.737793,501.824768 750.831970,516.622253 723.886169,531.346313 
	C721.987000,532.384094 720.025208,533.307800 718.087585,534.274658 
	C712.206665,537.209045 711.767273,538.103882 713.842957,544.392334 
	C720.083191,563.297302 721.711121,582.771729 720.705566,602.491760 
	C719.584534,624.476624 713.721191,645.270264 703.999268,665.002319 
	C700.939453,671.212646 701.170105,671.982239 706.957703,676.452942 
	C718.253540,685.178467 729.599670,693.839294 740.866150,702.602600 
	C762.349976,719.313477 783.778137,736.095886 805.257629,752.812378 
	C817.959473,762.697571 830.771851,772.441833 843.406799,782.411377 
	C846.495544,784.848572 848.742188,784.922546 852.199524,782.712952 
	C883.817200,762.506470 929.500977,765.984924 957.753235,792.198425 
	C978.403931,811.358887 988.650208,834.739990 987.677490,862.662659 
	C986.995239,882.247314 979.879761,899.705872 967.390320,915.036804 
	C954.862915,930.414124 939.061646,940.656799 919.959839,945.202576 
	C891.956177,951.866760 866.141602,946.379333 843.401367,928.562134 
	C824.044495,913.395752 813.338745,893.277893 809.965881,868.876648 
	C808.185059,855.993103 810.160034,843.719177 813.539978,831.514160 
	C814.575134,827.776245 813.595703,825.797729 810.674561,823.539429 
	C784.273621,803.129272 758.004822,782.548340 731.667847,762.055176 
	C714.895630,749.004395 698.077637,736.012451 681.270935,723.005981 
	C677.992065,720.468628 674.574280,718.100952 671.401611,715.439209 
	C669.150452,713.550598 667.627563,713.959900 665.372864,715.683533 
	C657.203796,721.928894 649.134888,728.408813 640.409058,733.797668 
	C627.819153,741.572754 614.175537,747.082764 599.880127,751.281372 
	C580.550720,756.958557 560.910583,757.482605 541.099304,756.692261 
	C536.319946,756.501587 531.531006,755.562927 526.839233,754.542053 
	C524.115417,753.949463 522.692627,754.056824 521.550781,757.059204 
	C517.189331,768.527588 512.416748,779.838806 507.958527,791.271423 
	C502.728607,804.682800 497.659943,818.157166 492.532776,831.608521 
	C487.984070,843.542236 483.469666,855.489075 478.905518,867.416870 
	C474.698822,878.410400 470.419525,889.376160 466.220215,900.372559 
	C460.362488,915.711975 454.456726,931.035095 448.886932,946.478943 
	C448.423462,947.764099 449.878265,950.617188 451.251923,951.554382 
	C466.256073,961.791138 479.079193,974.171509 489.394348,989.144653 
	C499.175995,1003.343323 506.787933,1018.582336 509.955566,1035.603271 
	C512.129517,1047.284790 514.724915,1059.198975 514.493958,1070.957275 
	C513.866150,1102.916626 503.605164,1131.829956 483.437744,1156.979736 
	C466.688690,1177.866455 445.700439,1192.782227 420.615692,1202.000610 
	C400.258301,1209.481812 379.048889,1211.932617 357.758118,1209.439331 
	C335.669159,1206.852661 314.928253,1199.510864 296.181793,1186.801636 
	C278.832794,1175.039673 264.399384,1160.641235 253.519592,1142.838989 
	C240.287628,1121.188110 233.076843,1097.813110 232.818741,1072.113403 
	C232.606003,1050.930298 236.051117,1030.781860 244.847122,1011.556396 
	C256.858459,985.303345 275.046143,964.526855 299.610626,949.206665 
	C312.869385,940.937561 327.064423,935.138550 342.190674,931.676208 
	C358.997223,927.829102 376.014160,926.474548 393.103058,929.752625 
	C397.084930,930.516479 398.806885,929.170959 400.167664,925.591553 
	C412.491272,893.175476 424.972290,860.819275 437.367737,828.430359 
	C448.696075,798.829773 459.924438,769.190796 471.337158,739.622864 
	C472.875488,735.637390 470.829376,734.014160 468.140228,731.882019 
	C458.007721,723.848083 447.381805,716.275818 438.170532,707.272339 
	C414.978149,684.603210 400.843567,656.791016 394.099487,625.122559 
	C392.195984,616.184082 391.986237,616.526489 382.921082,615.836426 
	C364.390625,614.425903 345.895172,612.560425 327.370636,611.064270 
	C312.807709,609.888062 298.219574,609.026917 283.648834,607.942627 
	C276.704102,607.425781 269.759613,606.839966 262.841309,606.053955 
	C257.087067,605.400269 256.808472,606.277161 254.542267,611.636108 
	C249.586197,623.355774 244.534668,635.147461 238.198654,646.147400 
	C225.873474,667.544922 207.356079,682.600708 185.164047,692.826294 
	C176.233490,696.941345 166.521973,699.832825 156.862564,701.764343 
	C146.868729,703.762695 136.470398,705.014587 126.313126,704.674988 
	C98.110825,703.732056 72.828194,694.263489 50.862751,676.256104 
	C29.506132,658.747803 15.193069,636.779358 7.913539,610.113770 
	C2.782928,591.319824 2.579175,572.413086 5.870057,553.376831 
	C10.526629,526.440735 23.303509,503.730164 42.846157,484.922211 
	C59.567593,468.829376 79.397507,458.265778 102.100456,452.769531 
	C122.775551,447.764282 143.294281,448.035400 163.649368,453.377411 
	C182.654144,458.365051 199.677536,467.495697 214.674713,480.364868 
	C232.944412,496.042206 245.415009,515.467041 252.883820,538.234253 
	C253.090515,538.864380 253.108414,539.612854 253.469574,540.126831 
	C256.274597,544.118896 253.374969,551.413269 260.102203,552.875854 
	C265.078705,553.957703 270.341614,553.681030 275.466644,554.127441 
	C297.434906,556.041138 319.392395,558.082886 341.368103,559.905396 
	C352.950806,560.865967 364.563416,561.464172 376.161438,562.242249 
	C379.967834,562.497620 383.774750,562.759583 387.574188,563.099731 
	C391.189636,563.423462 393.155884,562.369446 394.378479,558.404114 
	C398.229370,545.914490 401.605988,533.090759 407.230560,521.388550 
	C412.933594,509.523071 420.389374,498.308167 428.336670,487.756775 
	C441.306213,470.537598 458.199097,457.571655 477.037811,447.196014 
	C482.177032,444.365479 479.436981,440.347290 478.433228,437.196625 
	C471.842896,416.509918 464.836578,395.956207 458.086334,375.319763 
	C451.745605,355.935181 445.531708,336.509033 439.301727,317.088440 
	C433.530548,299.098022 427.607513,281.152588 422.138428,263.070282 
	C418.172150,249.956573 418.441315,250.238647 404.900909,249.774323 
	C374.555634,248.733719 347.497253,239.212463 324.291046,218.901917 
	C305.398682,202.366898 292.658142,182.175797 286.151978,158.219391 
	C282.109375,143.334137 280.933960,128.113892 282.720306,112.459892 
	C285.320740,89.671188 293.343658,69.372833 307.050385,51.259720 
	C320.870667,32.996544 338.311340,19.091324 359.893768,11.212558 
	C369.930847,7.548481 380.646393,5.746924 391.043640,3.059493 
	C392.084839,2.790368 393.051270,2.231939 394.026184,1.403888 
	C401.354248,1.000000 408.708496,1.000000 416.531372,1.000003 
M659.616455,635.996704 
	C665.457642,620.986084 668.584229,605.600952 668.196838,589.319092 
	C667.618713,565.020386 659.906677,543.363037 645.527039,524.110107 
	C636.197876,511.619385 624.472229,501.650055 610.750977,493.961700 
	C596.578674,486.020569 581.403931,481.358215 565.388794,480.089233 
	C549.914429,478.863037 534.647034,480.572205 519.743530,485.708862 
	C500.261230,492.423584 483.812531,503.365143 470.459320,518.956909 
	C451.861237,540.672852 443.046692,566.208862 443.290588,594.488525 
	C443.454071,613.442932 448.441650,631.699402 458.182709,648.118042 
	C467.780853,664.295837 480.263153,677.728882 496.674347,687.726746 
	C511.820465,696.953979 527.935547,702.535217 545.333557,703.937988 
	C568.644348,705.817505 590.951416,701.955688 611.493469,689.885986 
	C633.103943,677.188416 649.080444,659.565918 659.616455,635.996704 
M451.240234,1110.712769 
	C456.774353,1101.788574 458.954376,1091.830322 460.782593,1081.633057 
	C463.861420,1064.460205 460.897522,1048.090698 453.902283,1032.613281 
	C447.644836,1018.768433 438.485901,1006.971436 425.785126,997.860107 
	C413.298828,988.902527 399.630310,982.944641 384.678986,981.320374 
	C364.127136,979.087708 344.640839,982.969727 326.623474,994.300598 
	C311.119720,1004.050598 299.912231,1017.021118 292.681854,1033.523926 
	C284.733795,1051.665039 282.983093,1070.351685 287.739410,1089.843506 
	C291.171600,1103.908813 297.099091,1116.628784 306.748962,1127.086426 
	C332.294312,1154.770752 363.585938,1163.743164 399.910126,1153.137573 
	C422.688324,1146.487061 439.530029,1132.162354 451.240234,1110.712769 
M60.426411,602.911682 
	C65.847000,617.709473 75.041748,629.866272 87.852325,638.762451 
	C108.767273,653.286499 132.118942,656.228638 155.914062,648.276184 
	C192.133286,636.171570 213.721786,597.419861 204.550156,559.994629 
	C200.388611,543.013245 191.617508,529.316223 178.084061,518.327515 
	C161.209732,504.626068 141.903381,499.944672 120.760498,502.679993 
	C101.340813,505.192352 85.521194,514.553406 72.850937,529.523071 
	C64.471802,539.422852 59.653591,550.975403 57.169605,563.376099 
	C54.554672,576.430481 55.991615,589.479797 60.426411,602.911682 
M345.440186,164.008972 
	C366.505280,197.230606 411.430481,207.369186 444.321167,185.691269 
	C476.874786,164.235504 487.576782,120.400909 463.939636,85.219414 
	C443.181366,54.322803 401.194092,45.213585 368.905029,64.803452 
	C334.419220,85.726059 324.205109,129.516098 345.440186,164.008972 
M841.959595,434.463409 
	C851.402344,453.377625 866.597107,464.424805 887.514832,467.322510 
	C906.540527,469.958069 923.549011,465.223999 937.508362,451.797638 
	C952.785278,437.103912 958.991211,418.899658 955.825806,397.951660 
	C953.590332,383.157379 946.391174,370.817810 934.800842,361.214661 
	C922.289185,350.848145 907.888672,346.929443 891.704163,347.741211 
	C881.383179,348.258881 872.166382,351.357941 863.710266,356.803040 
	C847.695068,367.115601 838.325073,381.846771 836.274292,400.852600 
	C835.045471,412.240967 836.176880,423.402863 841.959595,434.463409 
M921.653015,887.172607 
	C931.202393,879.429993 935.501099,869.398499 935.048645,857.141663 
	C934.571045,844.203369 929.130066,834.132446 917.946655,827.554443 
	C905.360168,820.151306 892.349792,819.778259 879.643494,827.070068 
	C857.981262,839.501526 857.114319,869.954834 873.165405,885.308167 
	C884.822144,896.458130 909.302917,898.584717 921.653015,887.172607 
z"/>
<path fill="#FEFEFE" opacity="1.000000" stroke="none" 
	d="
M659.468262,636.354370 
	C649.080444,659.565918 633.103943,677.188416 611.493469,689.885986 
	C590.951416,701.955688 568.644348,705.817505 545.333557,703.937988 
	C527.935547,702.535217 511.820465,696.953979 496.674347,687.726746 
	C480.263153,677.728882 467.780853,664.295837 458.182709,648.118042 
	C448.441650,631.699402 443.454071,613.442932 443.290588,594.488525 
	C443.046692,566.208862 451.861237,540.672852 470.459320,518.956909 
	C483.812531,503.365143 500.261230,492.423584 519.743530,485.708862 
	C534.647034,480.572205 549.914429,478.863037 565.388794,480.089233 
	C581.403931,481.358215 596.578674,486.020569 610.750977,493.961700 
	C624.472229,501.650055 636.197876,511.619385 645.527039,524.110107 
	C659.906677,543.363037 667.618713,565.020386 668.196838,589.319092 
	C668.584229,605.600952 665.457642,620.986084 659.468262,636.354370 
z"/>
<path fill="#FEFEFE" opacity="1.000000" stroke="none" 
	d="
M451.071899,1111.042847 
	C439.530029,1132.162354 422.688324,1146.487061 399.910126,1153.137573 
	C363.585938,1163.743164 332.294312,1154.770752 306.748962,1127.086426 
	C297.099091,1116.628784 291.171600,1103.908813 287.739410,1089.843506 
	C282.983093,1070.351685 284.733795,1051.665039 292.681854,1033.523926 
	C299.912231,1017.021118 311.119720,1004.050598 326.623474,994.300598 
	C344.640839,982.969727 364.127136,979.087708 384.678986,981.320374 
	C399.630310,982.944641 413.298828,988.902527 425.785126,997.860107 
	C438.485901,1006.971436 447.644836,1018.768433 453.902283,1032.613281 
	C460.897522,1048.090698 463.861420,1064.460205 460.782593,1081.633057 
	C458.954376,1091.830322 456.774353,1101.788574 451.071899,1111.042847 
z"/>
<path fill="#FDFEFE" opacity="1.000000" stroke="none" 
	d="
M60.275040,602.543396 
	C55.991615,589.479797 54.554672,576.430481 57.169605,563.376099 
	C59.653591,550.975403 64.471802,539.422852 72.850937,529.523071 
	C85.521194,514.553406 101.340813,505.192352 120.760498,502.679993 
	C141.903381,499.944672 161.209732,504.626068 178.084061,518.327515 
	C191.617508,529.316223 200.388611,543.013245 204.550156,559.994629 
	C213.721786,597.419861 192.133286,636.171570 155.914062,648.276184 
	C132.118942,656.228638 108.767273,653.286499 87.852325,638.762451 
	C75.041748,629.866272 65.847000,617.709473 60.275040,602.543396 
z"/>
<path fill="#FDFDFE" opacity="1.000000" stroke="none" 
	d="
M345.273254,163.685043 
	C324.205109,129.516098 334.419220,85.726059 368.905029,64.803452 
	C401.194092,45.213585 443.181366,54.322803 463.939636,85.219414 
	C487.576782,120.400909 476.874786,164.235504 444.321167,185.691269 
	C411.430481,207.369186 366.505280,197.230606 345.273254,163.685043 
z"/>
<path fill="#FDFDFD" opacity="1.000000" stroke="none" 
	d="
M841.845642,434.104950 
	C836.176880,423.402863 835.045471,412.240967 836.274292,400.852600 
	C838.325073,381.846771 847.695068,367.115601 863.710266,356.803040 
	C872.166382,351.357941 881.383179,348.258881 891.704163,347.741211 
	C907.888672,346.929443 922.289185,350.848145 934.800842,361.214661 
	C946.391174,370.817810 953.590332,383.157379 955.825806,397.951660 
	C958.991211,418.899658 952.785278,437.103912 937.508362,451.797638 
	C923.549011,465.223999 906.540527,469.958069 887.514832,467.322510 
	C866.597107,464.424805 851.402344,453.377625 841.845642,434.104950 
z"/>
<path fill="#FCFCFC" opacity="1.000000" stroke="none" 
	d="
M921.352295,887.369263 
	C909.302917,898.584717 884.822144,896.458130 873.165405,885.308167 
	C857.114319,869.954834 857.981262,839.501526 879.643494,827.070068 
	C892.349792,819.778259 905.360168,820.151306 917.946655,827.554443 
	C929.130066,834.132446 934.571045,844.203369 935.048645,857.141663 
	C935.501099,869.398499 931.202393,879.429993 921.352295,887.369263 
z"/>
</svg>